/* XPM */
static char *result[] = {
/* columns rows colors chars-per-pixel */
"32 32 4 1 ",
"  c #965862",
". c #AD7062",
"X c #BB9578",
"o c #CBB495",
/* pixels */
" .XXXXX.XXX.XX. X...... XooooX. ",
"X.............. ....... XXXXXX. ",
"..............  X...... oXXX.X. ",
"X.............. X...... oXXXo.. ",
"..............  ....... XXXXXo. ",
"X....... .. ..  X...... oXXXXX. ",
" ..             ....... oXXXXX. ",
"                        oXXXXX. ",
"XX.XXX. XoooooooooXooXX oXXXXX. ",
"X.....  oXXXXXXXXXXXXX. XXXXXX. ",
"X.... . oXXXXXXXXXXXXX. oXXXXX. ",
"X...... oXXXXXXXXXXXXX. XXXXXX. ",
"X...... oXXXXXXXXXXXXX. XXXXXX. ",
"....... XXXXXXXXXXXXXX. XXXXXX. ",
"X...... ............... ....... ",
".......                         ",
"X...... oooooX. .oXoX.XXXoX.XX. ",
"X...... oXXXXX. X....XX........ ",
"X...... oXXXXX. X......X......  ",
"X...... XXXXXX. X.............. ",
"..... . oXXXXX. X.............  ",
"X... .. oXXXXX. X.............  ",
"..      oXXXXX. .... ..  ..     ",
"        oXXXXX.                 ",
"oXoooX. oXXXXX. XXo.X.. XXoXoXoo",
"XoXXXX. oXXXXX. X...... oXXXXXXX",
"XXXXXX. oXXXXX. X...... oXXXXXXX",
"XXXXXX. XXXXXX. X...... XXXXXXXX",
"XXXXXX. oXXXXX. X...... oXXXXXXX",
"XXXXXX. XXXXXX. X...... XXXXXXXX",
"....... ....... X...... ........",
"                .......         "
};
