/* XPM */
static char *result[] = {
/* columns rows colors chars-per-pixel */
"16 16 93 2 ",
"   c black",
".  c #030305",
"X  c #030306",
"o  c #030307",
"O  c #040407",
"+  c #0B0200",
"@  c #0E0000",
"#  c #0C0300",
"$  c #0C0502",
"%  c #0D0603",
"&  c #0B0906",
"*  c #06060B",
"=  c #150000",
"-  c #170600",
";  c #190000",
":  c #1C0600",
">  c #17130B",
",  c #0B1411",
"<  c #181510",
"1  c #191711",
"2  c #181613",
"3  c #1C1611",
"4  c #280000",
"5  c #350C00",
"6  c #20150D",
"7  c #271911",
"8  c #301C11",
"9  c #1A231D",
"0  c #242019",
"q  c #20261C",
"w  c #322D21",
"e  c #393969",
"r  c #3B3B6D",
"t  c #3C3C6F",
"y  c #333471",
"u  c #343571",
"i  c #343671",
"p  c #353671",
"a  c #3E3E73",
"s  c #3F3F75",
"d  c #3B3D7F",
"f  c #3C3D7F",
"g  c #404076",
"h  c #464576",
"j  c #474576",
"k  c #494977",
"l  c #43437B",
"z  c #44447C",
"x  c #4D4B7E",
"c  c #4E4D7F",
"v  c #5A567C",
"b  c #C12B00",
"n  c #D32600",
"m  c #D02F00",
"M  c #D33808",
"N  c #F92E00",
"B  c #FC2F00",
"V  c #E03200",
"C  c #E53700",
"Z  c #E23D08",
"A  c #F53700",
"S  c #F23A01",
"D  c #FF3900",
"F  c #FF3C02",
"G  c #EC4913",
"H  c #FA4911",
"J  c #77708F",
"K  c #BDB188",
"L  c #C6B18C",
"P  c #D8B988",
"I  c #CCBF92",
"U  c #EFC38E",
"Y  c #E1D29E",
"T  c #E0C9A1",
"R  c #EDD3AA",
"E  c #F1D5A0",
"W  c #F0D6A3",
"Q  c #F4D9A6",
"!  c #F6DBA7",
"~  c #F7DCA7",
"^  c #FBDDA2",
"/  c #FFDEA2",
"(  c #FFDFA2",
")  c #F9DDA7",
"_  c #FADEA7",
"`  c #F4DCAD",
"'  c #F9DFAD",
"]  c #FEE7A6",
"[  c #FFEBA7",
"{  c #FFE5AC",
"}  c #FFE8AA",
"|  c #FFF9B6",
" . c None",
/* pixels */
" . . . . . .. O O .  . . . . . .",
" . . . .. * e s s e * .  . . . .",
" . . .X e g l z z l g e X  . . .",
" . . .o s f y i a u d s o  . . .",
" . . .  r x k h p j c r    . . .",
" . . .2 t R | T v ' ` t 2  . . .",
" . .> L J ! [ } Q ] ~ J L >  . .",
" . . .0 W _ < E ^ 1 ) W 0  . . .",
" . . . .q K w { { w K q  . . . .",
" . . .+ @ 6 I Y Y I 6 @ +  . . .",
" . .- V C n 8 9 9 8 n C V -  . .",
" .# D B 5 N A U U A N 5 B D #  .",
" .# F H $ b S G G S b $ H F #  .",
" . .7 P 3 = ; 4 4 ; = 3 P 7  . .",
" . . ., % M Z m m Z M % ,  . . .",
" . . . .& / ( : : ( / &  . . . ."
};
