/* XPM */
static char *result[] = {
/* columns rows colors chars-per-pixel */
"16 16 48 1 ",
"  c #143F2B",
". c #1B4C2B",
"X c #1B5633",
"o c #264F30",
"O c #265333",
"+ c #265335",
"@ c #2B5035",
"# c #285234",
"$ c #295534",
"% c #2A5736",
"& c #2A5936",
"* c #2D5C34",
"= c #2B5B38",
"- c #2A5A39",
"; c #285C3A",
": c #266831",
"> c #346135",
", c #47753D",
"< c #47783C",
"1 c #7A5649",
"2 c #9E4150",
"3 c #A15149",
"4 c #AB4A57",
"5 c #AA4B5B",
"6 c #BF4F5F",
"7 c #B5585F",
"8 c #966945",
"9 c #A8604C",
"0 c #B2674B",
"q c #A07647",
"w c #B66969",
"e c #BE7270",
"r c #C24E58",
"t c #CB525F",
"y c #C94861",
"u c #CC4D62",
"i c #CF5D61",
"p c #D35861",
"a c #D05A66",
"s c #E7566B",
"d c #C76263",
"f c #CD6568",
"g c #E46A65",
"h c #4E8A3E",
"j c #B1AF53",
"k c #D1847B",
"l c #F49284",
"z c None",
/* pixels */
"zzzzzzzzzzzzzzzz",
"zzzzzzzzzzzzzzzz",
"zzzzzzzzzzzzzzzz",
"zzzzzzzzzzzzzzzz",
"zzzzzwezfdzzzzzz",
"zzzzzkl9guzzzzzz",
"zzzzzz3jqrzzzzzz",
"zzzzz7p08i6zzzzz",
"zzzzzas2t5zzzzzz",
"zzzzzz1@4yzzzzzz",
"zzzzzh:Xzzzzzzzz",
"zzzzzz #.zzzzzzz",
"zzzzzzzz*<zzzzzz",
"zzzzzzzz+-;zzzzz",
"zzzzzz>,%=$zzzzz",
"zzzzzzzO&ozzzzzz"
};
