/* XPM */
static char *result[] = {
/* columns rows colors chars-per-pixel */
"16 16 135 2 ",
"   c #304D5A",
".  c #364E5C",
"X  c #2A5A55",
"o  c #305D56",
"O  c #35565A",
"+  c #36575B",
"@  c #3A505B",
"#  c #3A525B",
"$  c #39565B",
"%  c #3A565B",
"&  c #3A575B",
"*  c #38515C",
"=  c #39545C",
"-  c #375B5B",
";  c #365C5B",
":  c #375B5C",
">  c #365D5C",
",  c #375D5C",
"<  c #385A5B",
"1  c #395A5B",
"2  c #385C5B",
"3  c #395C5B",
"4  c #385F5B",
"5  c #2D6158",
"6  c #326655",
"7  c #316557",
"8  c #346E53",
"9  c #336957",
"0  c #316A57",
"q  c #326C57",
"w  c #376D56",
"e  c #366E57",
"r  c #386E57",
"t  c #376259",
"y  c #35615B",
"u  c #376459",
"i  c #346658",
"p  c #37645B",
"a  c #34665A",
"s  c #3B615A",
"d  c #3A625A",
"f  c #3B625A",
"g  c #3A635A",
"h  c #396559",
"j  c #3B675A",
"k  c #3D6558",
"l  c #3C6659",
"z  c #3B6B59",
"x  c #3A685A",
"c  c #3C6B59",
"v  c #3F6A58",
"b  c #3C685A",
"n  c #386C59",
"m  c #3B6D58",
"M  c #386E5A",
"N  c #3E6F58",
"B  c #3C6C5A",
"V  c #3D6C5B",
"C  c #367557",
"Z  c #3D7157",
"A  c #3C7256",
"S  c #3C7356",
"D  c #3A7557",
"F  c #3C7457",
"G  c #3B7856",
"H  c #3E7A54",
"J  c #3E7857",
"K  c #3E7A57",
"L  c #3E7B57",
"P  c #3F7D55",
"I  c #3F7D57",
"U  c #38705A",
"Y  c #3E7159",
"T  c #3F7258",
"R  c #3F7358",
"E  c #3D7658",
"W  c #3E7659",
"Q  c #3F7759",
"!  c #3C745A",
"~  c #3F7958",
"^  c #3F7859",
"/  c #3D7E58",
"(  c #406858",
")  c #407757",
"_  c #437B57",
"`  c #437F56",
"'  c #46715B",
"]  c #407758",
"[  c #40795A",
"{  c #467959",
"}  c #427E58",
"|  c #467D5A",
" . c #448255",
".. c #468357",
"X. c #428557",
"o. c #428656",
"O. c #488754",
"+. c #428059",
"@. c #43835A",
"#. c #448358",
"$. c #45825A",
"%. c #448559",
"&. c #4C805F",
"*. c #4A895B",
"=. c #4A8D59",
"-. c #4F8E5B",
";. c #4D895D",
":. c #518F5B",
">. c #47925A",
",. c #4E9258",
"<. c #53915D",
"1. c #50925D",
"2. c #51925D",
"3. c #55935D",
"4. c #55905F",
"5. c #55945D",
"6. c #5A935F",
"7. c #539E5B",
"8. c #549F5A",
"9. c #5D8D61",
"0. c #5B9A60",
"q. c #5C9B63",
"w. c #639D63",
"e. c #63AB63",
"r. c #72A467",
"t. c #76AB6A",
"y. c #7EB46A",
"u. c #7FB76A",
"i. c #80B26B",
"p. c #85B66C",
"a. c #88B36B",
"s. c #92B770",
"d. c #91B970",
"f. c #90BE70",
"g. c None",
/* pixels */
"g.g.g.g.g.g.g.g.g.g.g.g.g.g.g.g.",
"g.g.g.g.g.g.g.g.g.g.g.g.g.g.g.g.",
"g.g.g.g.g.g.g.r 9 g.g.g.g.g.g.g.",
"g.g.g.g.g.g.g.$.6. .g.g.g.g.g.g.",
"g.g.g.| J 0 _ a.t.q n G K g.g.g.",
"g.g.g.r.s.@.A y.<.X 9.d.q.D g.g.",
"g.g.g.:.p.i.#.>.*.o 5.u.&.e g.g.",
"g.g.g.8 C 0.-.i B c L 5   g.g.g.",
"g.` 3.4.Q 6 } ] Z ] O k ' V g.g.",
"g.H w.f.e.%.m { h ; v 8.7.+.a g.",
"g.g.F ;.2.=.S + * z X.[ t u g.g.",
"g.g.g.7 w y b d # f 3 . 4 g.g.g.",
"g.g.g.W ..R 2 < & % s s p g.g.g.",
"g.g.) 1.,.P U M , 1 / o.T N g.g.",
"g.g.! ^ l > E O.~ 1 - j ( g g.g.",
"g.g.g.g.g.g.x I Y $ @ = : g.g.g."
};
