/* XPM */
static char *result[] = {
/* columns rows colors chars-per-pixel */
"32 32 4 1 ",
"  c #214A16",
". c #245118",
"X c #265919",
"o c #295C1B",
/* pixels */
"Xo.o.oXoXoXoXoXoXoXoXoXoXoXo.o.o",
"................................",
"Xo.o.                       .o.o",
"................................",
"Xo. . XoXoXoXoXoXoXoXoXoXoX . .o",
"Xo. .o oXoXoXoXoXoXoXoXoXo o. .o",
"Xo. . XoXoXoXoXoXoXoXoXoXoX . .o",
"Xo. .o oXoXoXoXoXoXoXoXoXo o. .o",
"Xo. . XoXoXoXoXoXoXoXoXoXoX . .o",
"Xo. .o oXoXoXoXoXoXoXoXoXo o. .o",
"Xo. . XoXoXoXoXoXoXoXoXoXoX . .o",
"Xo. .o oXoXoXoXoXoXoXoXoXo o. .o",
"Xo. . XoXoXoXoXoXoXoXoXoXoX . .o",
"Xo. .o oXoXoXoXoXoXoXoXoXo o. .o",
"Xo. . XoXoXoXoXoXoXoXoXoXoX . .o",
"Xo. .o oXoXoXoXoXoXoXoXoXo o. .o",
"Xo. . XoXoXoXoXoXoXoXoXoXoX . .o",
"Xo. .o oXoXoXoXoXoXoXoXoXo o. .o",
"Xo. . XoXoXoXoXoXoXoXoXoXoX . .o",
"Xo. .o oXoXoXoXoXoXoXoXoXo o. .o",
"Xo. . XoXoXoXoXoXoXoXoXoXoX . .o",
"Xo. .o oXoXoXoXoXoXoXoXoXo o. .o",
"Xo. . XoXoXoXoXoXoXoXoXoXoX . .o",
"Xo. .o oXoXoXoXoXoXoXoXoXo o. .o",
"Xo. . XoXoXoXoXoXoXoXoXoXoX . .o",
"Xo. .o oXoXoXoXoXoXoXoXoXo o. .o",
"Xo. . XoXoXoXoXoXoXoXoXoXoX . .o",
"Xo. .o oXoXoXoXoXoXoXoXoXo o. .o",
"................................",
"Xo.o.                       .o.o",
"................................",
"Xo.o.oXoXoXoXoXoXoXoXoXoXoXo.o.o"
};
